<svg width="260" height="530" viewBox="0 0 260 530" fill="none" xmlns="http://www.w3.org/2000/svg">
<path d="M0 19.2474C0 8.61735 8.73958 0 19.5204 0H238.464C249.245 0 257.984 8.61736 257.984 19.2474V175.043C259.104 175.081 260 175.987 260 177.1V204.618C260 205.731 259.104 206.637 257.984 206.675V239.411C259.104 239.448 260 240.355 260 241.468V302.17C260 303.284 259.104 304.19 257.984 304.228V510.753C257.984 521.383 249.245 530 238.464 530H19.5204C8.73957 530 0 521.383 0 510.753V19.2474Z" fill="#0B0921"/>
<path d="M2.26244 20.3866C2.26244 10.286 10.5667 2.09784 20.8105 2.09784H237.176C247.42 2.09784 255.724 10.286 255.724 20.3866V508.453C255.724 518.554 247.42 526.742 237.176 526.742H20.8105C10.5667 526.742 2.26244 518.554 2.26244 508.453V20.3866Z" fill="#36363E"/>
<path d="M8.88259 21.6069C8.88259 15.0496 14.2737 9.73393 20.9239 9.73393H237.062C243.712 9.73393 249.103 15.0496 249.103 21.6069V503.902C249.103 510.459 243.712 515.775 237.062 515.775H20.9239C14.2737 515.775 8.88259 510.459 8.88259 503.902V21.6069Z" fill="#4D4D56"/>
</svg>
