<svg width="260" height="530" viewBox="0 0 260 530" fill="none" xmlns="http://www.w3.org/2000/svg">
<path d="M2.09513 40.0573C2.09513 17.9342 20.031 0 42.156 0H217.819C239.944 0 257.88 17.9343 257.88 40.0573V489.943C257.88 512.066 239.944 530 217.819 530H42.156C20.031 530 2.09513 512.066 2.09513 489.943V40.0573Z" fill="#0B0921"/>
<path d="M5.57981 39.8386C5.57981 19.6182 21.9731 3.22631 42.1953 3.22631H217.729C237.951 3.22631 254.344 19.6182 254.344 39.8386V489.995C254.344 510.215 237.951 526.607 217.729 526.607H42.1953C21.9731 526.607 5.57981 510.215 5.57981 489.995V39.8386Z" fill="#36363E"/>
<path d="M0.350044 129.179C0.350044 128.704 0.735536 128.318 1.21107 128.318H1.23125C1.70678 128.318 2.09227 128.704 2.09227 129.179V164.839C2.09227 165.314 1.70678 165.7 1.23125 165.7H1.21107C0.735536 165.7 0.350044 165.314 0.350044 164.839V129.179Z" fill="#0B0921"/>
<path d="M0.350044 176.283C0.350044 175.807 0.735536 175.422 1.21107 175.422H1.23125C1.70678 175.422 2.09227 175.807 2.09227 176.283V211.942C2.09227 212.418 1.70678 212.803 1.23125 212.803H1.21107C0.735536 212.803 0.350044 212.418 0.350044 211.942V176.283Z" fill="#0B0921"/>
<path d="M0 94.1519C0 93.6764 0.385493 93.291 0.861022 93.291H1.23165C1.70718 93.291 2.09267 93.6764 2.09267 94.1519V111.228C2.09267 111.704 1.70718 112.089 1.23165 112.089H0.861022C0.385493 112.089 0 111.704 0 111.228V94.1519Z" fill="#0B0921"/>
<path d="M257.878 154.437C257.878 153.961 258.263 153.576 258.739 153.576H259.139C259.615 153.576 260 153.961 260 154.437V211.325C260 211.8 259.615 212.186 259.139 212.186H258.739C258.263 212.186 257.878 211.8 257.878 211.325V154.437Z" fill="#0B0921"/>
<path d="M12.1723 40.6164C12.1723 23.9402 25.6923 10.4215 42.37 10.4215H217.245C233.923 10.4215 247.443 23.9402 247.443 40.6165V489.484C247.443 506.161 233.923 519.679 217.245 519.679H42.37C25.6923 519.679 12.1723 506.161 12.1723 489.484V40.6164Z" fill="#4D4D56"/>
</svg>
